<svg xmlns="http://www.w3.org/2000/svg" viewBox="0 0 800 560" role="img" aria-label="AI research">
<defs><linearGradient id="g" x1="0" y1="0" x2="1" y2="1"><stop offset="0" stop-color="#000080"/><stop offset="1" stop-color="#07073f"/></linearGradient></defs>
<rect width="800" height="560" fill="url(#g)"/>
<g stroke="#9fb2ff" stroke-opacity="0.4" stroke-width="1.4"><line x1="200" y1="160" x2="400" y2="120"/><line x1="200" y1="160" x2="400" y2="240"/><line x1="200" y1="160" x2="400" y2="360"/><line x1="200" y1="160" x2="400" y2="480"/><line x1="200" y1="300" x2="400" y2="120"/><line x1="200" y1="300" x2="400" y2="240"/><line x1="200" y1="300" x2="400" y2="360"/><line x1="200" y1="300" x2="400" y2="480"/><line x1="200" y1="440" x2="400" y2="120"/><line x1="200" y1="440" x2="400" y2="240"/><line x1="200" y1="440" x2="400" y2="360"/><line x1="200" y1="440" x2="400" y2="480"/><line x1="400" y1="120" x2="600" y2="160"/><line x1="400" y1="120" x2="600" y2="300"/><line x1="400" y1="120" x2="600" y2="440"/><line x1="400" y1="240" x2="600" y2="160"/><line x1="400" y1="240" x2="600" y2="300"/><line x1="400" y1="240" x2="600" y2="440"/><line x1="400" y1="360" x2="600" y2="160"/><line x1="400" y1="360" x2="600" y2="300"/><line x1="400" y1="360" x2="600" y2="440"/><line x1="400" y1="480" x2="600" y2="160"/><line x1="400" y1="480" x2="600" y2="300"/><line x1="400" y1="480" x2="600" y2="440"/></g>
<g fill="#fff"><circle cx="200" cy="160" r="17"/><circle cx="200" cy="300" r="17"/><circle cx="200" cy="440" r="17"/><circle cx="400" cy="120" r="17"/><circle cx="400" cy="240" r="17"/><circle cx="400" cy="360" r="17"/><circle cx="400" cy="480" r="17"/><circle cx="600" cy="160" r="17"/><circle cx="600" cy="300" r="17"/><circle cx="600" cy="440" r="17"/></g>
</svg>
