<svg xmlns="http://www.w3.org/2000/svg" viewBox="0 0 800 560" role="img" aria-label="System research">
<defs><linearGradient id="g" x1="0" y1="0" x2="1" y2="1"><stop offset="0" stop-color="#000080"/><stop offset="1" stop-color="#07073f"/></linearGradient></defs>
<rect width="800" height="560" fill="url(#g)"/>
<g><rect x="245" y="140" width="310" height="86" rx="12" fill="#ffffff" fill-opacity="0.08" stroke="#fff" stroke-width="2.5"/><circle cx="288" cy="183" r="9" fill="#9fb2ff"/><circle cx="320" cy="183" r="9" fill="#ffffff" fill-opacity="0.55"/><line x1="468" y1="168" x2="468" y2="198" stroke="#9fb2ff" stroke-width="4" stroke-linecap="round"/><line x1="492" y1="168" x2="492" y2="198" stroke="#9fb2ff" stroke-width="4" stroke-linecap="round"/><line x1="516" y1="168" x2="516" y2="198" stroke="#9fb2ff" stroke-width="4" stroke-linecap="round"/><rect x="245" y="270" width="310" height="86" rx="12" fill="#ffffff" fill-opacity="0.08" stroke="#fff" stroke-width="2.5"/><circle cx="288" cy="313" r="9" fill="#9fb2ff"/><circle cx="320" cy="313" r="9" fill="#ffffff" fill-opacity="0.55"/><line x1="468" y1="298" x2="468" y2="328" stroke="#9fb2ff" stroke-width="4" stroke-linecap="round"/><line x1="492" y1="298" x2="492" y2="328" stroke="#9fb2ff" stroke-width="4" stroke-linecap="round"/><line x1="516" y1="298" x2="516" y2="328" stroke="#9fb2ff" stroke-width="4" stroke-linecap="round"/><rect x="245" y="400" width="310" height="86" rx="12" fill="#ffffff" fill-opacity="0.08" stroke="#fff" stroke-width="2.5"/><circle cx="288" cy="443" r="9" fill="#9fb2ff"/><circle cx="320" cy="443" r="9" fill="#ffffff" fill-opacity="0.55"/><line x1="468" y1="428" x2="468" y2="458" stroke="#9fb2ff" stroke-width="4" stroke-linecap="round"/><line x1="492" y1="428" x2="492" y2="458" stroke="#9fb2ff" stroke-width="4" stroke-linecap="round"/><line x1="516" y1="428" x2="516" y2="458" stroke="#9fb2ff" stroke-width="4" stroke-linecap="round"/></g>
</svg>
